# xmcd
#
# Track frame offsets:
#	150
#	10855
#	21975
#	33897
#	47464
#	60345
#	70500
#	84597
#	98692
#	111657
#	122962
#	137405
#	150035
#	161017
#
# Disc length: 2332
#
# Revision: 1
# Processed by: cddbd v1.5.1PL0 Copyright (c) Steve Scherf et al.
# Submitted via: Grip 2.96
# Normalized: r0:DSETVAR1
#
DISCID=a1091a0e
DTITLE=Various Artist - The Essential Country Collection - cd3
DYEAR=1900
DGENRE=
TTITLE0=Charlie Rich - There won't be anymore
TTITLE1=Don Gibson - Oh, lonesome me
TTITLE2=The Kendalls - Sweet Desire
TTITLE3=Bobby Bare - Marie Laveau
TTITLE4=Merle Haggard - The fightin' side of me
TTITLE5=Roger Miller - Engine no.9
TTITLE6=Conway Twitty - You've never been this far before
TTITLE7=Lee Greenwood - I.O.U.
TTITLE8=Faron Young - It's four in the morning
TTITLE9=Kitty Wells - Heartbreak USA
TTITLE10=Johnny Darrell - With Pen in Hand
TTITLE11=Lynn Anderson - Top of the World
TTITLE12=Patsy Cline - I can't forget
TTITLE13=The Marshall Tucker Band - Searchin' for a Rainbow
EXTD=
EXTT0=
EXTT1=
EXTT2=
EXTT3=
EXTT4=
EXTT5=
EXTT6=
EXTT7=
EXTT8=
EXTT9=
EXTT10=
EXTT11=
EXTT12=
EXTT13=
PLAYORDER=
